<svg id="svg" version="1.1" xmlns="http://www.w3.org/2000/svg" xmlns:xlink="http://www.w3.org/1999/xlink" width="400" height="261.5146831530139" viewBox="0, 0, 400,261.5146831530139"><g id="svgg"><path id="path0" d="M204.840 108.829 C 204.840 108.979,204.055 109.091,203.009 109.091 C 201.555 109.091,201.177 109.172,201.177 109.483 C 201.177 109.774,200.872 109.876,200.000 109.876 C 199.353 109.876,198.823 109.993,198.823 110.137 C 198.823 110.281,198.528 110.399,198.169 110.399 C 197.809 110.399,197.515 110.517,197.515 110.661 C 197.515 110.804,197.220 110.922,196.861 110.922 C 196.501 110.922,196.207 111.048,196.207 111.202 C 196.207 111.626,195.515 112.230,195.029 112.230 C 194.606 112.230,193.852 112.817,193.852 113.146 C 193.852 113.417,193.129 114.061,192.824 114.061 C 192.670 114.061,192.544 114.188,192.544 114.342 C 192.544 114.704,191.879 115.370,191.516 115.370 C 191.362 115.370,191.236 115.638,191.236 115.966 C 191.236 116.294,191.001 116.732,190.713 116.939 C 190.425 117.147,190.190 117.585,190.190 117.913 C 190.190 118.268,190.031 118.509,189.797 118.509 C 189.579 118.509,189.405 118.741,189.405 119.032 C 189.405 119.320,189.287 119.555,189.143 119.555 C 188.999 119.555,188.882 120.026,188.882 120.602 C 188.882 121.177,188.764 121.648,188.620 121.648 C 188.476 121.648,188.358 122.178,188.358 122.825 C 188.358 123.697,188.257 124.003,187.966 124.003 C 187.630 124.003,187.574 124.758,187.574 129.235 C 187.574 133.711,187.630 134.467,187.966 134.467 C 188.271 134.467,188.358 134.816,188.358 136.037 C 188.358 136.909,188.475 137.606,188.620 137.606 C 188.764 137.606,188.882 137.901,188.882 138.260 C 188.882 138.620,188.999 138.914,189.143 138.914 C 189.287 138.914,189.405 139.150,189.405 139.438 C 189.405 139.728,189.579 139.961,189.797 139.961 C 190.041 139.961,190.190 140.208,190.190 140.615 C 190.190 140.974,190.307 141.269,190.451 141.269 C 190.595 141.269,190.713 141.513,190.713 141.811 C 190.713 142.390,191.279 143.100,191.741 143.100 C 191.895 143.100,192.021 143.226,192.021 143.380 C 192.021 143.685,192.665 144.408,192.937 144.408 C 193.155 144.408,193.852 145.105,193.852 145.324 C 193.852 145.595,194.575 146.239,194.880 146.239 C 195.034 146.239,195.160 146.357,195.160 146.501 C 195.160 146.645,195.396 146.763,195.683 146.763 C 195.974 146.763,196.207 146.937,196.207 147.155 C 196.207 147.399,196.454 147.547,196.861 147.547 C 197.220 147.547,197.515 147.665,197.515 147.809 C 197.515 147.953,197.927 148.071,198.430 148.071 C 199.070 148.071,199.346 148.189,199.346 148.463 C 199.346 148.768,199.695 148.855,200.916 148.855 C 201.788 148.855,202.485 148.972,202.485 149.117 C 202.485 149.281,204.099 149.379,206.802 149.379 C 209.505 149.379,211.118 149.281,211.118 149.117 C 211.118 148.972,211.816 148.855,212.688 148.855 C 213.909 148.855,214.258 148.768,214.258 148.463 C 214.258 148.219,214.505 148.071,214.912 148.071 C 215.271 148.071,215.566 147.953,215.566 147.809 C 215.566 147.665,215.978 147.547,216.481 147.547 C 216.985 147.547,217.397 147.421,217.397 147.267 C 217.397 146.843,218.089 146.239,218.574 146.239 C 218.997 146.239,219.751 145.653,219.751 145.324 C 219.751 145.105,220.449 144.408,220.667 144.408 C 220.939 144.408,221.583 143.685,221.583 143.380 C 221.583 143.226,221.706 143.100,221.856 143.100 C 222.333 143.100,223.414 141.837,223.414 141.281 C 223.414 140.979,223.585 140.746,223.806 140.746 C 224.022 140.746,224.199 140.569,224.199 140.353 C 224.199 140.137,224.317 139.961,224.460 139.961 C 224.604 139.961,224.722 139.725,224.722 139.438 C 224.722 139.150,224.840 138.914,224.984 138.914 C 225.128 138.914,225.245 138.502,225.245 137.999 C 225.245 137.359,225.364 137.083,225.638 137.083 C 225.934 137.083,226.030 136.763,226.030 135.775 C 226.030 135.056,226.148 134.467,226.292 134.467 C 226.459 134.467,226.553 132.243,226.553 128.319 C 226.553 124.395,226.459 122.171,226.292 122.171 C 226.148 122.171,226.030 121.583,226.030 120.863 C 226.030 119.875,225.934 119.555,225.638 119.555 C 225.420 119.555,225.245 119.323,225.245 119.032 C 225.245 118.744,225.128 118.509,224.984 118.509 C 224.840 118.509,224.722 118.215,224.722 117.855 C 224.722 117.495,224.604 117.201,224.460 117.201 C 224.317 117.201,224.199 116.906,224.199 116.547 C 224.199 116.187,224.073 115.893,223.919 115.893 C 223.495 115.893,222.891 115.201,222.891 114.716 C 222.891 114.230,222.287 113.538,221.863 113.538 C 221.709 113.538,221.583 113.362,221.583 113.146 C 221.583 112.925,221.349 112.753,221.048 112.753 C 220.491 112.753,219.228 111.672,219.228 111.196 C 219.228 111.045,218.934 110.922,218.574 110.922 C 218.215 110.922,217.920 110.804,217.920 110.661 C 217.920 110.517,217.626 110.399,217.266 110.399 C 216.906 110.399,216.612 110.281,216.612 110.137 C 216.612 109.993,216.082 109.876,215.435 109.876 C 214.563 109.876,214.258 109.774,214.258 109.483 C 214.258 109.172,213.880 109.091,212.426 109.091 C 211.380 109.091,210.595 108.979,210.595 108.829 C 210.595 108.671,209.462 108.568,207.717 108.568 C 205.973 108.568,204.840 108.671,204.840 108.829 M170.307 110.679 C 170.307 111.736,170.843 112.230,171.989 112.230 C 172.503 112.230,172.923 112.348,172.923 112.492 C 172.923 112.636,173.159 112.753,173.447 112.753 C 173.737 112.753,173.970 112.928,173.970 113.146 C 173.970 113.362,174.147 113.538,174.362 113.538 C 174.707 113.538,174.755 115.500,174.755 129.627 C 174.755 143.754,174.707 145.716,174.362 145.716 C 174.046 145.716,173.970 146.123,173.970 147.809 C 173.970 149.030,173.861 149.902,173.708 149.902 C 173.564 149.902,173.447 150.314,173.447 150.818 C 173.447 151.321,173.329 151.733,173.185 151.733 C 173.041 151.733,172.923 152.027,172.923 152.387 C 172.923 152.747,172.797 153.041,172.643 153.041 C 172.281 153.041,171.615 153.707,171.615 154.069 C 171.615 154.223,171.489 154.349,171.335 154.349 C 171.030 154.349,170.307 154.993,170.307 155.265 C 170.307 155.629,169.531 156.181,169.018 156.181 C 168.720 156.181,168.476 156.298,168.476 156.442 C 168.476 156.586,168.182 156.704,167.822 156.704 C 167.415 156.704,167.168 156.852,167.168 157.096 C 167.168 157.312,167.050 157.489,166.906 157.489 C 166.763 157.489,166.645 158.018,166.645 158.666 L 166.645 159.843 167.822 159.843 C 168.470 159.843,168.999 159.725,168.999 159.581 C 168.999 159.438,169.411 159.320,169.915 159.320 C 170.554 159.320,170.831 159.201,170.831 158.927 C 170.831 158.644,171.121 158.535,171.877 158.535 C 172.453 158.535,172.923 158.417,172.923 158.273 C 172.923 158.129,173.159 158.012,173.447 158.012 C 173.734 158.012,173.970 157.894,173.970 157.750 C 173.970 157.606,174.264 157.489,174.624 157.489 C 175.031 157.489,175.278 157.340,175.278 157.096 C 175.278 156.875,175.512 156.704,175.813 156.704 C 176.370 156.704,177.632 155.623,177.632 155.146 C 177.632 154.996,177.809 154.872,178.025 154.872 C 178.269 154.872,178.417 154.625,178.417 154.218 C 178.417 153.859,178.535 153.564,178.679 153.564 C 178.823 153.564,178.940 153.342,178.940 153.069 C 178.940 152.797,179.117 152.506,179.333 152.423 C 179.562 152.335,179.725 151.943,179.725 151.480 C 179.725 151.044,179.843 150.687,179.987 150.687 C 180.138 150.687,180.249 149.858,180.249 148.725 C 180.249 147.591,180.359 146.763,180.510 146.763 C 180.682 146.763,180.772 140.920,180.772 129.758 L 180.772 112.753 181.687 112.753 C 182.191 112.753,182.603 112.636,182.603 112.492 C 182.603 112.348,183.015 112.230,183.519 112.230 C 184.429 112.230,184.434 112.224,184.434 111.053 L 184.434 109.876 177.371 109.876 L 170.307 109.876 170.307 110.679 M231.524 111.053 C 231.524 112.224,231.529 112.230,232.440 112.230 C 232.943 112.230,233.355 112.348,233.355 112.492 C 233.355 112.636,233.767 112.753,234.271 112.753 L 235.186 112.753 235.186 128.842 C 235.186 144.840,235.183 144.931,234.655 144.931 C 234.363 144.931,234.056 145.108,233.973 145.324 C 233.886 145.550,233.495 145.716,233.047 145.716 C 232.052 145.716,231.524 146.254,231.524 147.267 L 231.524 148.071 236.494 148.071 C 240.738 148.071,241.465 148.128,241.465 148.463 C 241.465 148.789,241.974 148.855,244.474 148.855 C 246.973 148.855,247.482 148.789,247.482 148.463 C 247.482 148.149,247.874 148.071,249.444 148.071 C 250.578 148.071,251.406 147.960,251.406 147.809 C 251.406 147.665,251.818 147.547,252.322 147.547 C 252.961 147.547,253.237 147.429,253.237 147.155 C 253.237 146.937,253.470 146.763,253.761 146.763 C 254.048 146.763,254.284 146.645,254.284 146.501 C 254.284 146.357,254.578 146.239,254.938 146.239 C 255.298 146.239,255.592 146.122,255.592 145.978 C 255.592 145.834,255.768 145.716,255.984 145.716 C 256.200 145.716,256.377 145.593,256.377 145.443 C 256.377 145.088,257.579 143.885,257.934 143.885 C 258.085 143.885,258.208 143.708,258.208 143.492 C 258.208 143.277,258.326 143.100,258.470 143.100 C 258.613 143.100,258.731 142.865,258.731 142.577 C 258.731 142.289,258.849 142.054,258.993 142.054 C 259.137 142.054,259.254 141.759,259.254 141.400 C 259.254 140.993,259.403 140.746,259.647 140.746 C 259.977 140.746,260.039 140.163,260.039 137.075 C 260.039 134.053,259.970 133.377,259.647 133.254 C 259.431 133.171,259.254 132.880,259.254 132.608 C 259.254 132.335,259.137 132.112,258.993 132.112 C 258.849 132.112,258.731 131.869,258.731 131.571 C 258.731 130.991,258.165 130.281,257.703 130.281 C 257.549 130.281,257.423 130.155,257.423 130.001 C 257.423 129.577,256.731 128.973,256.246 128.973 C 255.761 128.973,255.069 128.369,255.069 127.945 C 255.069 127.791,254.657 127.665,254.153 127.665 C 253.649 127.665,253.237 127.547,253.237 127.404 C 253.237 127.260,253.355 127.142,253.499 127.142 C 253.643 127.142,253.761 126.965,253.761 126.750 C 253.761 126.515,254.001 126.357,254.357 126.357 C 254.685 126.357,255.123 126.122,255.330 125.834 C 255.538 125.546,255.858 125.311,256.042 125.311 C 256.226 125.311,256.377 125.134,256.377 124.918 C 256.377 124.702,256.494 124.526,256.638 124.526 C 256.782 124.526,256.900 124.290,256.900 124.003 C 256.900 123.715,257.018 123.479,257.162 123.479 C 257.305 123.479,257.423 123.185,257.423 122.825 C 257.423 122.418,257.571 122.171,257.816 122.171 C 258.146 122.171,258.208 121.590,258.208 118.509 C 258.208 115.428,258.146 114.846,257.816 114.846 C 257.571 114.846,257.423 114.599,257.423 114.192 C 257.423 113.833,257.305 113.538,257.162 113.538 C 257.018 113.538,256.900 113.412,256.900 113.258 C 256.900 112.953,256.256 112.230,255.984 112.230 C 255.713 112.230,255.069 111.507,255.069 111.202 C 255.069 111.048,254.774 110.922,254.415 110.922 C 254.055 110.922,253.761 110.804,253.761 110.661 C 253.761 110.517,253.349 110.399,252.845 110.399 C 252.341 110.399,251.929 110.281,251.929 110.137 C 251.929 109.967,248.354 109.876,241.727 109.876 L 231.524 109.876 231.524 111.053 M263.702 111.053 C 263.702 112.224,263.707 112.230,264.617 112.230 C 265.121 112.230,265.533 112.348,265.533 112.492 C 265.533 112.636,265.945 112.753,266.449 112.753 L 267.364 112.753 267.364 128.842 L 267.364 144.931 266.710 144.931 C 266.303 144.931,266.056 145.080,266.056 145.324 C 266.056 145.587,265.793 145.716,265.253 145.716 C 264.231 145.716,263.702 146.246,263.702 147.267 L 263.702 148.071 268.672 148.071 C 272.916 148.071,273.643 148.128,273.643 148.463 C 273.643 148.789,274.152 148.855,276.651 148.855 C 279.151 148.855,279.660 148.789,279.660 148.463 C 279.660 148.149,280.052 148.071,281.622 148.071 C 282.756 148.071,283.584 147.960,283.584 147.809 C 283.584 147.665,283.996 147.547,284.500 147.547 C 285.139 147.547,285.415 147.429,285.415 147.155 C 285.415 146.937,285.648 146.763,285.939 146.763 C 286.226 146.763,286.462 146.645,286.462 146.501 C 286.462 146.357,286.706 146.239,287.004 146.239 C 287.583 146.239,288.293 145.673,288.293 145.212 C 288.293 145.057,288.415 144.931,288.565 144.931 C 288.998 144.931,290.909 142.922,290.909 142.467 C 290.909 142.239,291.027 142.054,291.171 142.054 C 291.315 142.054,291.432 141.759,291.432 141.400 C 291.432 140.993,291.581 140.746,291.825 140.746 C 292.155 140.746,292.217 140.163,292.217 137.075 C 292.217 134.053,292.148 133.377,291.825 133.254 C 291.609 133.171,291.432 132.880,291.432 132.608 C 291.432 132.335,291.315 132.112,291.171 132.112 C 291.027 132.112,290.909 131.869,290.909 131.571 C 290.909 130.991,290.343 130.281,289.881 130.281 C 289.727 130.281,289.601 130.155,289.601 130.001 C 289.601 129.577,288.909 128.973,288.424 128.973 C 287.938 128.973,287.247 128.369,287.247 127.945 C 287.247 127.791,286.835 127.665,286.331 127.665 C 285.827 127.665,285.415 127.547,285.415 127.404 C 285.415 127.260,285.533 127.142,285.677 127.142 C 285.821 127.142,285.939 126.965,285.939 126.750 C 285.939 126.529,286.172 126.357,286.474 126.357 C 287.030 126.357,288.293 125.276,288.293 124.799 C 288.293 124.649,288.470 124.526,288.685 124.526 C 288.903 124.526,289.078 124.293,289.078 124.003 C 289.078 123.715,289.196 123.479,289.339 123.479 C 289.483 123.479,289.601 123.185,289.601 122.825 C 289.601 122.418,289.749 122.171,289.993 122.171 C 290.324 122.171,290.386 121.590,290.386 118.509 C 290.386 115.428,290.324 114.846,289.993 114.846 C 289.749 114.846,289.601 114.599,289.601 114.192 C 289.601 113.833,289.483 113.538,289.339 113.538 C 289.196 113.538,289.078 113.362,289.078 113.146 C 289.078 112.930,288.955 112.753,288.804 112.753 C 288.449 112.753,287.247 111.551,287.247 111.196 C 287.247 111.045,286.952 110.922,286.593 110.922 C 286.233 110.922,285.939 110.804,285.939 110.661 C 285.939 110.517,285.526 110.399,285.023 110.399 C 284.519 110.399,284.107 110.281,284.107 110.137 C 284.107 109.967,280.532 109.876,273.905 109.876 L 263.702 109.876 263.702 111.053 M290.909 111.053 C 290.909 112.224,290.914 112.230,291.825 112.230 C 292.328 112.230,292.740 112.348,292.740 112.492 C 292.740 112.636,293.035 112.753,293.394 112.753 C 293.754 112.753,294.048 112.882,294.048 113.038 C 294.048 113.195,294.578 113.838,295.226 114.467 C 295.873 115.097,296.403 115.851,296.403 116.145 C 296.403 116.444,296.575 116.678,296.795 116.678 C 297.013 116.678,297.188 116.910,297.188 117.201 C 297.188 117.489,297.305 117.724,297.449 117.724 C 297.593 117.724,297.711 118.018,297.711 118.378 C 297.711 118.738,297.829 119.032,297.973 119.032 C 298.116 119.032,298.234 119.326,298.234 119.686 C 298.234 120.046,298.360 120.340,298.514 120.340 C 298.976 120.340,299.542 121.050,299.542 121.629 C 299.542 121.927,299.660 122.171,299.804 122.171 C 299.948 122.171,300.065 122.466,300.065 122.825 C 300.065 123.232,300.214 123.479,300.458 123.479 C 300.676 123.479,300.850 123.712,300.850 124.003 C 300.850 124.290,300.968 124.526,301.112 124.526 C 301.256 124.526,301.373 124.702,301.373 124.918 C 301.373 125.134,301.491 125.311,301.635 125.311 C 301.779 125.311,301.897 125.546,301.897 125.834 C 301.897 126.125,302.071 126.357,302.289 126.357 C 302.533 126.357,302.681 126.604,302.681 127.011 C 302.681 127.371,302.799 127.665,302.943 127.665 C 303.087 127.665,303.205 127.959,303.205 128.319 C 303.205 128.679,303.331 128.973,303.485 128.973 C 303.947 128.973,304.513 129.683,304.513 130.263 C 304.513 130.561,304.630 130.804,304.774 130.804 C 304.918 130.804,305.036 131.099,305.036 131.458 C 305.036 131.865,305.184 132.112,305.428 132.112 C 305.767 132.112,305.821 132.999,305.821 138.522 L 305.821 144.931 304.905 144.931 C 304.266 144.931,303.990 145.050,303.990 145.324 C 303.990 145.599,303.711 145.716,303.055 145.716 C 301.909 145.716,301.373 146.210,301.373 147.267 L 301.373 148.071 308.829 148.071 L 316.285 148.071 316.285 147.155 C 316.285 146.516,316.167 146.239,315.893 146.239 C 315.677 146.239,315.500 146.122,315.500 145.978 C 315.500 145.834,314.971 145.716,314.323 145.716 C 313.451 145.716,313.146 145.614,313.146 145.324 C 313.146 145.080,312.899 144.931,312.492 144.931 L 311.838 144.931 311.838 138.129 C 311.838 132.258,311.891 131.328,312.230 131.328 C 312.448 131.328,312.623 131.095,312.623 130.804 C 312.623 130.517,312.740 130.281,312.884 130.281 C 313.028 130.281,313.146 129.987,313.146 129.627 C 313.146 129.267,313.264 128.973,313.407 128.973 C 313.551 128.973,313.669 128.679,313.669 128.319 C 313.669 127.912,313.817 127.665,314.061 127.665 C 314.296 127.665,314.454 127.424,314.454 127.069 C 314.454 126.741,314.689 126.303,314.977 126.095 C 315.265 125.888,315.500 125.450,315.500 125.122 C 315.500 124.766,315.659 124.526,315.893 124.526 C 316.111 124.526,316.285 124.293,316.285 124.003 C 316.285 123.715,316.403 123.479,316.547 123.479 C 316.691 123.479,316.808 123.198,316.808 122.853 C 316.808 122.509,316.985 122.160,317.201 122.077 C 317.417 121.994,317.593 121.713,317.593 121.452 C 317.593 121.192,317.829 120.809,318.116 120.602 C 318.404 120.394,318.640 119.956,318.640 119.628 C 318.640 119.273,318.798 119.032,319.032 119.032 C 319.276 119.032,319.424 118.785,319.424 118.378 C 319.424 118.018,319.542 117.724,319.686 117.724 C 319.830 117.724,319.948 117.489,319.948 117.201 C 319.948 116.913,320.065 116.678,320.209 116.678 C 320.353 116.678,320.471 116.383,320.471 116.024 C 320.471 115.664,320.597 115.370,320.751 115.370 C 321.213 115.370,321.779 114.659,321.779 114.080 C 321.779 113.782,321.897 113.538,322.041 113.538 C 322.184 113.538,322.302 113.362,322.302 113.146 C 322.302 112.873,322.577 112.753,323.202 112.753 C 323.697 112.753,324.175 112.636,324.264 112.492 C 324.353 112.348,324.831 112.230,325.326 112.230 C 326.219 112.230,326.226 112.220,326.226 111.053 L 326.226 109.876 319.948 109.876 L 313.669 109.876 313.669 111.053 C 313.669 112.224,313.674 112.230,314.585 112.230 C 315.088 112.230,315.500 112.348,315.500 112.492 C 315.500 112.636,315.795 112.753,316.154 112.753 C 316.743 112.753,316.808 112.858,316.808 113.800 C 316.808 114.375,316.691 114.846,316.547 114.846 C 316.403 114.846,316.285 115.082,316.285 115.370 C 316.285 115.660,316.111 115.893,315.893 115.893 C 315.649 115.893,315.500 116.140,315.500 116.547 C 315.500 116.906,315.383 117.201,315.239 117.201 C 315.095 117.201,314.977 117.495,314.977 117.855 C 314.977 118.215,314.859 118.509,314.716 118.509 C 314.572 118.509,314.454 118.691,314.454 118.914 C 314.454 119.136,314.160 119.591,313.800 119.925 C 313.440 120.258,313.146 120.782,313.146 121.090 C 313.146 121.397,313.028 121.648,312.884 121.648 C 312.740 121.648,312.623 121.884,312.623 122.171 C 312.623 122.462,312.448 122.695,312.230 122.695 C 311.986 122.695,311.838 122.942,311.838 123.349 C 311.838 123.708,311.720 124.003,311.576 124.003 C 311.432 124.003,311.315 124.297,311.315 124.657 C 311.315 125.016,311.197 125.311,311.053 125.311 C 310.909 125.311,310.791 125.546,310.791 125.834 C 310.791 126.218,310.617 126.357,310.137 126.357 C 309.658 126.357,309.483 126.218,309.483 125.834 C 309.483 125.543,309.309 125.311,309.091 125.311 C 308.875 125.311,308.698 125.134,308.698 124.918 C 308.698 124.702,308.581 124.526,308.437 124.526 C 308.293 124.526,308.175 124.290,308.175 124.003 C 308.175 123.715,308.058 123.479,307.914 123.479 C 307.770 123.479,307.652 123.185,307.652 122.825 C 307.652 122.418,307.504 122.171,307.260 122.171 C 307.026 122.171,306.867 121.931,306.867 121.575 C 306.867 121.247,306.632 120.809,306.344 120.602 C 306.056 120.394,305.821 119.956,305.821 119.628 C 305.821 119.273,305.662 119.032,305.428 119.032 C 305.184 119.032,305.036 118.785,305.036 118.378 C 305.036 118.018,304.918 117.724,304.774 117.724 C 304.630 117.724,304.513 117.531,304.513 117.296 C 304.513 117.061,304.218 116.596,303.859 116.262 C 303.499 115.929,303.205 115.474,303.205 115.251 C 303.205 115.029,303.087 114.846,302.943 114.846 C 302.799 114.846,302.681 114.552,302.681 114.192 C 302.681 113.785,302.533 113.538,302.289 113.538 C 302.073 113.538,301.897 113.362,301.897 113.146 C 301.897 112.902,302.144 112.753,302.551 112.753 C 302.910 112.753,303.205 112.636,303.205 112.492 C 303.205 112.348,303.793 112.230,304.513 112.230 L 305.821 112.230 305.821 111.053 L 305.821 109.876 298.365 109.876 L 290.909 109.876 290.909 111.053 M210.595 112.492 C 210.595 112.636,211.007 112.753,211.511 112.753 C 212.150 112.753,212.426 112.872,212.426 113.146 C 212.426 113.362,212.655 113.538,212.934 113.538 C 213.213 113.538,213.515 113.656,213.604 113.800 C 213.693 113.944,213.930 114.061,214.132 114.061 C 214.700 114.061,216.612 116.070,216.612 116.667 C 216.612 116.961,216.738 117.201,216.892 117.201 C 217.424 117.201,217.920 117.950,217.920 118.752 C 217.920 119.194,218.038 119.555,218.182 119.555 C 218.326 119.555,218.443 119.850,218.443 120.209 C 218.443 120.616,218.592 120.863,218.836 120.863 C 219.132 120.863,219.228 121.183,219.228 122.171 C 219.228 122.891,219.346 123.479,219.490 123.479 C 219.657 123.479,219.751 125.616,219.751 129.366 C 219.751 133.115,219.657 135.252,219.490 135.252 C 219.346 135.252,219.228 135.782,219.228 136.429 C 219.228 137.301,219.127 137.606,218.836 137.606 C 218.562 137.606,218.443 137.882,218.443 138.522 C 218.443 139.026,218.326 139.438,218.182 139.438 C 218.038 139.438,217.920 139.681,217.920 139.979 C 217.920 140.559,217.354 141.269,216.892 141.269 C 216.738 141.269,216.612 141.537,216.612 141.865 C 216.612 142.193,216.377 142.631,216.089 142.838 C 215.801 143.046,215.566 143.366,215.566 143.550 C 215.566 143.734,215.325 143.885,215.032 143.885 C 214.738 143.885,214.245 144.120,213.936 144.408 C 213.609 144.713,213.013 144.931,212.508 144.931 C 211.912 144.931,211.642 145.054,211.642 145.324 C 211.642 145.614,211.336 145.716,210.464 145.716 C 209.817 145.716,209.287 145.834,209.287 145.978 C 209.287 146.123,208.589 146.239,207.717 146.239 C 206.845 146.239,206.148 146.123,206.148 145.978 C 206.148 145.832,205.450 145.716,204.578 145.716 C 203.357 145.716,203.009 145.629,203.009 145.324 C 203.009 145.106,202.776 144.931,202.485 144.931 C 202.198 144.931,201.962 144.814,201.962 144.670 C 201.962 144.526,201.668 144.408,201.308 144.408 C 200.948 144.408,200.654 144.290,200.654 144.147 C 200.654 144.003,200.477 143.885,200.262 143.885 C 200.046 143.885,199.869 143.762,199.869 143.611 C 199.869 143.256,198.667 142.054,198.311 142.054 C 198.161 142.054,198.038 141.877,198.038 141.661 C 198.038 141.445,197.920 141.269,197.776 141.269 C 197.632 141.269,197.515 141.025,197.515 140.727 C 197.515 140.148,196.949 139.438,196.487 139.438 C 196.333 139.438,196.207 139.026,196.207 138.522 C 196.207 138.018,196.089 137.606,195.945 137.606 C 195.801 137.606,195.683 137.194,195.683 136.691 C 195.683 136.187,195.566 135.775,195.422 135.775 C 195.277 135.775,195.160 135.077,195.160 134.205 C 195.160 132.985,195.073 132.636,194.768 132.636 C 194.435 132.636,194.375 131.982,194.375 128.319 C 194.375 124.657,194.435 124.003,194.768 124.003 C 195.073 124.003,195.160 123.654,195.160 122.433 C 195.160 121.561,195.277 120.863,195.422 120.863 C 195.566 120.863,195.683 120.451,195.683 119.948 C 195.683 119.444,195.801 119.032,195.945 119.032 C 196.089 119.032,196.207 118.738,196.207 118.378 C 196.207 117.971,196.355 117.724,196.599 117.724 C 196.817 117.724,196.991 117.491,196.991 117.201 C 196.991 116.913,197.109 116.678,197.253 116.678 C 197.397 116.678,197.515 116.551,197.515 116.397 C 197.515 116.092,198.159 115.370,198.430 115.370 C 198.649 115.370,199.346 114.672,199.346 114.454 C 199.346 114.090,200.122 113.538,200.635 113.538 C 200.943 113.538,201.177 113.368,201.177 113.146 C 201.177 112.872,201.453 112.753,202.093 112.753 C 202.596 112.753,203.009 112.636,203.009 112.492 C 203.009 112.329,204.447 112.230,206.802 112.230 C 209.156 112.230,210.595 112.329,210.595 112.492 M246.959 113.146 C 246.959 113.420,247.235 113.538,247.874 113.538 C 248.378 113.538,248.790 113.656,248.790 113.800 C 248.790 113.944,248.967 114.061,249.182 114.061 C 249.398 114.061,249.575 114.185,249.575 114.335 C 249.575 114.690,250.778 115.893,251.133 115.893 C 251.283 115.893,251.406 116.305,251.406 116.808 C 251.406 117.312,251.524 117.724,251.668 117.724 C 251.813 117.724,251.929 118.422,251.929 119.294 C 251.929 120.166,251.813 120.863,251.668 120.863 C 251.524 120.863,251.406 121.275,251.406 121.779 C 251.406 122.418,251.288 122.695,251.014 122.695 C 250.780 122.695,250.621 122.935,250.621 123.291 C 250.621 123.619,250.386 124.057,250.098 124.264 C 249.810 124.472,249.575 124.792,249.575 124.976 C 249.575 125.160,249.281 125.311,248.921 125.311 C 248.561 125.311,248.267 125.428,248.267 125.572 C 248.267 125.716,247.855 125.834,247.351 125.834 C 246.848 125.834,246.436 125.952,246.436 126.095 C 246.436 126.252,245.433 126.357,243.950 126.357 L 241.465 126.357 241.465 119.555 L 241.465 112.753 244.212 112.753 C 246.479 112.753,246.959 112.822,246.959 113.146 M279.137 113.146 C 279.137 113.409,279.399 113.538,279.931 113.538 C 280.529 113.538,281.009 113.830,281.870 114.716 C 282.499 115.363,283.142 115.893,283.299 115.893 C 283.456 115.893,283.584 116.305,283.584 116.808 C 283.584 117.312,283.702 117.724,283.846 117.724 C 283.991 117.724,284.107 118.422,284.107 119.294 C 284.107 120.166,283.991 120.863,283.846 120.863 C 283.702 120.863,283.584 121.275,283.584 121.779 C 283.584 122.418,283.466 122.695,283.192 122.695 C 282.971 122.695,282.799 122.928,282.799 123.227 C 282.799 123.835,281.403 125.311,280.828 125.311 C 280.617 125.311,280.445 125.428,280.445 125.572 C 280.445 125.716,280.033 125.834,279.529 125.834 C 279.026 125.834,278.613 125.952,278.613 126.095 C 278.613 126.252,277.611 126.357,276.128 126.357 L 273.643 126.357 273.643 119.555 L 273.643 112.753 276.390 112.753 C 278.657 112.753,279.137 112.822,279.137 113.146 M246.959 129.889 C 246.959 130.183,247.272 130.281,248.209 130.281 C 249.159 130.281,249.550 130.407,249.836 130.804 C 250.044 131.092,250.482 131.328,250.810 131.328 C 251.165 131.328,251.406 131.486,251.406 131.720 C 251.406 131.936,251.524 132.112,251.668 132.112 C 251.812 132.112,251.929 132.348,251.929 132.636 C 251.929 132.923,252.047 133.159,252.191 133.159 C 252.335 133.159,252.453 133.453,252.453 133.813 C 252.453 134.220,252.601 134.467,252.845 134.467 C 253.169 134.467,253.237 134.943,253.237 137.186 C 253.237 139.361,253.159 139.935,252.845 140.055 C 252.629 140.138,252.453 140.445,252.453 140.737 C 252.453 141.030,252.335 141.269,252.191 141.269 C 252.047 141.269,251.929 141.513,251.929 141.811 C 251.929 142.390,251.363 143.100,250.902 143.100 C 250.747 143.100,250.621 143.277,250.621 143.492 C 250.621 143.710,250.389 143.885,250.098 143.885 C 249.810 143.885,249.575 144.003,249.575 144.147 C 249.575 144.290,249.281 144.408,248.921 144.408 C 248.561 144.408,248.267 144.526,248.267 144.670 C 248.267 144.831,246.959 144.931,244.866 144.931 L 241.465 144.931 241.465 137.214 L 241.465 129.496 244.212 129.496 C 246.479 129.496,246.959 129.565,246.959 129.889 M279.137 129.889 C 279.137 130.179,279.442 130.281,280.314 130.281 C 280.961 130.281,281.491 130.399,281.491 130.543 C 281.491 130.687,281.668 130.804,281.884 130.804 C 282.099 130.804,282.276 130.922,282.276 131.066 C 282.276 131.210,282.570 131.328,282.930 131.328 C 283.337 131.328,283.584 131.476,283.584 131.720 C 283.584 131.936,283.702 132.112,283.846 132.112 C 283.990 132.112,284.107 132.348,284.107 132.636 C 284.107 132.923,284.225 133.159,284.369 133.159 C 284.513 133.159,284.630 133.453,284.630 133.813 C 284.630 134.220,284.779 134.467,285.023 134.467 C 285.347 134.467,285.415 134.943,285.415 137.186 C 285.415 139.361,285.337 139.935,285.023 140.055 C 284.807 140.138,284.630 140.445,284.630 140.737 C 284.630 141.030,284.513 141.269,284.369 141.269 C 284.225 141.269,284.107 141.513,284.107 141.811 C 284.107 142.390,283.541 143.100,283.080 143.100 C 282.925 143.100,282.799 143.277,282.799 143.492 C 282.799 143.737,282.552 143.885,282.145 143.885 C 281.785 143.885,281.491 144.003,281.491 144.147 C 281.491 144.290,281.256 144.408,280.968 144.408 C 280.680 144.408,280.445 144.526,280.445 144.670 C 280.445 144.831,279.137 144.931,277.044 144.931 L 273.643 144.931 273.643 137.214 L 273.643 129.496 276.390 129.496 C 278.657 129.496,279.137 129.565,279.137 129.889 " stroke="none" fill="#040404" fill-rule="evenodd"></path><path id="path1" d="M75.747 134.223 C 75.841 134.376,75.760 134.480,75.566 134.453 C 74.622 134.324,73.250 134.498,73.250 134.747 C 73.250 135.090,72.593 135.775,72.264 135.775 C 72.132 135.775,72.000 136.530,71.971 137.453 C 71.916 139.125,72.800 140.746,73.765 140.746 C 73.914 140.746,74.035 140.863,74.035 141.007 C 74.035 141.239,73.474 141.387,72.923 141.300 C 72.816 141.283,72.727 141.445,72.727 141.661 C 72.727 141.877,72.551 142.054,72.335 142.054 C 71.376 142.054,71.840 144.595,72.860 144.932 C 73.365 145.099,73.712 145.343,73.630 145.476 C 73.369 145.898,73.756 145.734,74.297 145.193 C 74.812 144.678,75.169 144.670,97.428 144.670 C 120.199 144.670,120.863 144.689,120.863 145.352 C 120.863 145.829,121.240 145.816,121.648 145.324 C 121.827 145.108,122.086 144.931,122.222 144.931 C 122.774 144.931,123.218 144.124,123.218 143.119 C 123.218 142.337,123.111 142.054,122.817 142.054 C 122.597 142.054,122.349 141.877,122.266 141.661 C 122.183 141.445,121.834 141.269,121.489 141.269 C 121.145 141.269,120.863 141.151,120.863 141.007 C 120.863 140.863,121.158 140.746,121.517 140.746 C 121.877 140.746,122.171 140.595,122.171 140.411 C 122.171 140.227,122.407 139.907,122.695 139.699 C 123.242 139.305,123.500 136.298,122.987 136.298 C 122.860 136.298,122.694 136.063,122.619 135.775 C 122.537 135.462,122.262 135.252,121.934 135.252 C 121.622 135.252,121.387 135.083,121.387 134.859 C 121.387 134.506,120.801 134.353,119.621 134.397 C 119.441 134.403,119.294 134.304,119.294 134.176 C 119.294 134.043,110.011 133.944,97.434 133.944 C 82.014 133.944,75.625 134.026,75.747 134.223 M118.739 140.982 C 119.928 141.736,118.465 141.792,97.717 141.792 C 76.522 141.792,75.263 141.752,76.425 141.107 C 77.153 140.704,118.108 140.582,118.739 140.982 M72.989 156.068 C 71.845 156.454,71.528 158.239,72.421 159.268 L 72.924 159.848 97.809 159.840 C 120.034 159.834,122.695 159.790,122.695 159.430 C 122.695 159.209,122.812 159.100,122.956 159.189 C 123.116 159.288,123.218 158.880,123.218 158.139 C 123.218 156.832,122.796 156.181,121.950 156.181 C 121.664 156.181,121.381 156.034,121.322 155.856 C 121.244 155.622,121.086 155.659,120.758 155.987 C 120.153 156.592,75.330 156.703,74.421 156.101 C 74.012 155.830,73.715 155.823,72.989 156.068 " stroke="none" fill="#89442d" fill-rule="evenodd"></path><path id="path2" d="M165.075 36.437 C 164.859 36.613,164.333 37.227,163.906 37.802 C 163.479 38.378,162.916 39.081,162.656 39.364 C 159.993 42.263,154.353 51.144,151.104 57.554 C 145.068 69.461,141.371 80.057,137.503 96.534 C 136.760 99.700,135.430 106.716,134.973 109.876 C 134.563 112.722,134.249 113.758,133.712 114.046 C 133.322 114.254,133.226 114.670,133.183 116.339 C 133.154 117.461,133.018 118.490,132.883 118.627 C 132.747 118.763,132.636 120.005,132.636 121.387 C 132.636 122.991,132.522 124.011,132.322 124.212 C 132.078 124.456,132.080 124.526,132.331 124.526 C 132.569 124.526,132.583 124.659,132.383 125.032 C 132.234 125.310,132.112 127.125,132.112 129.065 C 132.112 131.506,132.019 132.623,131.809 132.693 C 131.610 132.760,131.466 133.908,131.389 136.050 C 131.324 137.841,131.166 139.346,131.038 139.394 C 130.910 139.442,130.804 139.648,130.804 139.852 C 130.804 140.056,130.687 140.222,130.543 140.222 C 130.399 140.222,130.281 140.385,130.281 140.583 C 130.281 140.781,130.105 141.090,129.889 141.269 C 129.673 141.448,129.496 141.933,129.496 142.347 C 129.496 142.761,129.379 143.100,129.235 143.100 C 129.091 143.100,128.973 143.502,128.973 143.994 C 128.973 144.486,128.838 144.933,128.672 144.988 C 128.506 145.043,128.315 145.762,128.247 146.584 C 128.179 147.407,128.020 148.144,127.894 148.222 C 127.575 148.419,127.606 151.210,127.927 151.210 C 128.071 151.210,128.188 151.372,128.188 151.570 C 128.188 151.769,128.365 152.077,128.581 152.256 C 128.797 152.435,128.973 152.803,128.973 153.073 C 128.973 153.343,129.091 153.564,129.235 153.564 C 129.379 153.564,129.496 153.859,129.496 154.218 C 129.496 154.578,129.612 154.872,129.753 154.872 C 129.894 154.872,130.084 155.167,130.174 155.526 C 130.264 155.886,130.443 156.181,130.571 156.181 C 130.699 156.181,130.804 156.409,130.804 156.688 C 130.804 156.968,130.922 157.269,131.066 157.358 C 131.210 157.447,131.328 157.748,131.328 158.027 C 131.328 158.306,131.504 158.535,131.720 158.535 C 131.964 158.535,132.112 158.782,132.112 159.189 C 132.112 160.591,134.956 159.878,134.982 158.470 C 134.986 158.218,135.106 158.012,135.247 158.012 C 135.388 158.012,135.577 157.717,135.668 157.358 C 135.758 156.998,135.937 156.704,136.065 156.704 C 136.193 156.704,136.298 156.409,136.298 156.050 C 136.298 155.690,136.416 155.396,136.560 155.396 C 136.704 155.396,136.821 155.173,136.821 154.900 C 136.821 154.628,136.998 154.337,137.214 154.255 C 137.430 154.172,137.606 153.865,137.606 153.573 C 137.606 153.280,137.724 153.041,137.868 153.041 C 138.012 153.041,138.129 152.757,138.129 152.409 C 138.129 152.061,138.277 151.727,138.457 151.667 C 138.899 151.519,138.880 146.708,138.436 146.560 C 138.264 146.502,138.129 145.957,138.129 145.317 C 138.129 144.690,138.012 144.105,137.868 144.016 C 137.724 143.927,137.606 143.567,137.606 143.215 C 137.606 142.822,137.456 142.577,137.214 142.577 C 136.998 142.577,136.821 142.365,136.821 142.106 C 136.821 141.521,136.237 140.227,135.971 140.224 C 135.863 140.223,135.775 139.928,135.775 139.568 C 135.775 139.161,135.627 138.914,135.383 138.914 C 134.909 138.914,134.788 132.007,135.256 131.717 C 135.402 131.627,135.451 131.438,135.364 131.298 C 135.278 131.158,135.320 130.901,135.459 130.728 C 135.598 130.554,135.725 128.718,135.742 126.648 C 135.758 124.577,135.873 122.753,135.997 122.593 C 136.302 122.200,136.386 116.293,136.096 115.706 C 135.689 114.884,137.218 104.427,138.937 96.272 C 142.649 78.667,148.721 62.392,156.262 49.836 C 158.096 46.782,161.516 41.535,162.003 41.030 C 162.188 40.838,162.806 40.033,163.376 39.241 C 163.946 38.450,164.679 37.509,165.006 37.151 C 165.803 36.275,165.849 35.809,165.075 36.437 M74.412 145.041 C 73.939 145.387,73.905 145.766,73.905 150.556 C 73.905 155.346,73.939 155.725,74.412 156.071 C 74.938 156.455,119.466 156.661,120.449 156.283 C 121.074 156.044,121.074 145.068,120.449 144.829 C 119.466 144.451,74.938 144.657,74.412 145.041 " stroke="none" fill="#f49d38" fill-rule="evenodd"></path><path id="path3" d="M194.270 7.484 C 194.174 7.734,193.680 7.848,192.699 7.848 C 191.911 7.848,191.194 7.966,191.105 8.110 C 191.016 8.254,190.362 8.371,189.651 8.371 C 188.940 8.371,188.358 8.489,188.358 8.633 C 188.358 8.777,187.825 8.895,187.173 8.895 C 186.361 8.895,185.940 9.018,185.837 9.287 C 185.735 9.554,185.317 9.680,184.537 9.680 C 183.905 9.680,183.388 9.797,183.388 9.941 C 183.388 10.085,182.986 10.203,182.494 10.203 C 182.002 10.203,181.561 10.317,181.513 10.456 C 181.465 10.595,181.043 10.738,180.576 10.773 C 180.108 10.808,179.725 10.950,179.725 11.087 C 179.725 11.224,179.648 11.259,179.553 11.164 C 179.458 11.070,179.245 11.105,179.078 11.244 C 178.911 11.382,178.408 11.523,177.960 11.557 C 177.512 11.591,177.203 11.713,177.274 11.827 C 177.344 11.941,177.049 12.034,176.617 12.034 C 176.185 12.034,175.759 12.152,175.670 12.296 C 175.581 12.440,175.289 12.557,175.020 12.557 C 174.751 12.557,174.354 12.734,174.138 12.950 C 173.922 13.165,173.384 13.342,172.942 13.342 C 172.500 13.342,172.139 13.460,172.139 13.604 C 172.139 13.748,171.900 13.865,171.607 13.865 C 171.315 13.865,171.008 14.042,170.925 14.258 C 170.842 14.474,170.552 14.650,170.279 14.650 C 170.007 14.650,169.784 14.768,169.784 14.912 C 169.784 15.056,169.488 15.173,169.127 15.173 C 168.449 15.173,167.445 15.628,167.107 16.089 C 166.979 16.263,166.912 16.263,166.906 16.089 C 166.902 15.945,166.812 15.963,166.706 16.128 C 166.601 16.294,166.279 16.470,165.991 16.521 C 165.703 16.571,165.272 16.825,165.032 17.085 C 164.792 17.344,164.351 17.575,164.051 17.598 C 163.751 17.621,163.506 17.791,163.506 17.976 C 163.506 18.161,163.211 18.313,162.852 18.313 C 162.492 18.313,162.198 18.430,162.198 18.574 C 162.198 18.718,161.955 18.836,161.659 18.836 C 161.363 18.836,161.193 18.954,161.282 19.097 C 161.371 19.241,161.256 19.359,161.028 19.359 C 160.799 19.359,160.544 19.536,160.461 19.751 C 160.378 19.967,160.087 20.144,159.815 20.144 C 159.543 20.144,159.320 20.262,159.320 20.405 C 159.320 20.549,159.143 20.667,158.927 20.667 C 158.712 20.667,158.535 20.844,158.535 21.060 C 158.535 21.275,158.346 21.452,158.115 21.452 C 157.884 21.452,157.369 21.717,156.971 22.041 C 156.572 22.364,155.910 22.865,155.499 23.152 C 155.089 23.440,154.142 24.294,153.396 25.049 C 152.650 25.804,151.834 26.422,151.581 26.422 C 151.329 26.422,151.191 26.491,151.275 26.575 C 151.466 26.766,150.525 27.731,150.148 27.731 C 149.996 27.731,149.944 27.848,150.033 27.992 C 150.122 28.136,150.054 28.254,149.883 28.254 C 149.539 28.254,148.594 29.247,148.594 29.607 C 148.594 29.732,147.946 30.493,147.155 31.297 C 146.364 32.101,145.716 32.981,145.716 33.253 C 145.716 33.525,145.590 33.748,145.436 33.748 C 144.974 33.748,144.408 34.458,144.408 35.037 C 144.408 35.344,144.238 35.579,144.016 35.579 C 143.800 35.579,143.623 35.762,143.623 35.987 C 143.623 36.211,143.506 36.322,143.362 36.233 C 143.213 36.141,143.100 36.361,143.100 36.741 C 143.100 37.109,142.982 37.410,142.838 37.410 C 142.695 37.410,142.577 37.587,142.577 37.802 C 142.577 38.018,142.461 38.195,142.320 38.195 C 142.179 38.195,141.990 38.488,141.900 38.847 C 141.810 39.206,141.631 39.434,141.503 39.355 C 141.374 39.275,141.269 39.512,141.269 39.880 C 141.269 40.248,141.151 40.549,141.007 40.549 C 140.863 40.549,140.746 40.801,140.746 41.109 C 140.746 41.417,140.540 41.838,140.288 42.044 C 140.008 42.274,139.982 42.346,140.222 42.231 C 140.541 42.078,140.553 42.109,140.288 42.395 C 140.108 42.588,139.961 42.959,139.961 43.218 C 139.961 43.477,139.843 43.689,139.699 43.689 C 139.555 43.689,139.438 43.983,139.438 44.343 C 139.438 44.702,139.320 44.997,139.176 44.997 C 139.032 44.997,138.914 45.514,138.914 46.146 C 138.914 46.926,138.788 47.344,138.522 47.446 C 138.293 47.534,138.129 47.926,138.129 48.389 C 138.129 48.826,138.012 49.182,137.868 49.182 C 137.709 49.182,137.606 48.049,137.606 46.305 C 137.606 44.561,137.709 43.427,137.868 43.427 C 138.016 43.427,138.129 42.680,138.129 41.708 C 138.129 40.552,138.254 39.864,138.510 39.608 C 138.735 39.384,138.861 38.851,138.819 38.312 C 138.778 37.790,138.896 37.273,139.092 37.109 C 139.282 36.952,139.438 36.543,139.438 36.201 C 139.438 35.859,139.562 35.579,139.714 35.579 C 140.209 35.579,139.841 33.888,139.324 33.788 C 139.034 33.732,138.920 33.807,139.030 33.984 C 139.127 34.142,139.070 34.271,138.904 34.271 C 138.737 34.271,138.188 34.683,137.685 35.186 C 137.181 35.690,136.688 36.102,136.589 36.102 C 136.490 36.102,136.391 36.348,136.368 36.648 C 136.346 36.948,136.027 37.452,135.659 37.768 C 135.291 38.084,134.990 38.538,134.990 38.776 C 134.990 39.015,134.872 39.283,134.729 39.372 C 134.585 39.461,134.467 39.762,134.467 40.042 C 134.467 40.321,134.349 40.549,134.205 40.549 C 134.061 40.549,133.944 40.961,133.944 41.465 C 133.944 42.104,133.825 42.381,133.551 42.381 C 133.255 42.381,133.159 42.700,133.159 43.689 C 133.159 44.408,133.061 44.997,132.941 44.997 C 132.657 44.997,132.661 44.909,132.627 52.054 C 132.608 56.208,132.690 58.226,132.879 58.289 C 133.233 58.407,133.250 60.432,132.897 60.432 C 132.753 60.432,132.636 60.016,132.636 59.508 C 132.636 58.975,132.487 58.527,132.284 58.449 C 132.038 58.355,131.966 57.972,132.045 57.180 C 132.117 56.457,132.008 55.756,131.743 55.244 C 131.283 54.355,131.176 51.662,131.589 51.406 C 131.733 51.317,131.851 50.898,131.851 50.475 C 131.851 49.602,131.137 49.410,130.449 50.098 C 130.234 50.314,129.973 50.491,129.871 50.491 C 129.563 50.491,128.990 51.374,128.982 51.864 C 128.977 52.116,128.847 52.322,128.693 52.322 C 128.231 52.322,127.665 53.032,127.665 53.611 C 127.665 53.909,127.547 54.153,127.404 54.153 C 127.260 54.153,127.142 54.447,127.142 54.807 C 127.142 55.167,127.033 55.461,126.899 55.461 C 126.479 55.461,125.834 57.070,125.834 58.117 C 125.834 58.671,125.716 59.124,125.572 59.124 C 125.418 59.124,125.311 60.039,125.311 61.347 C 125.311 62.810,125.211 63.571,125.019 63.571 C 124.855 63.571,124.787 63.802,124.863 64.095 C 124.949 64.424,124.897 64.554,124.722 64.446 C 124.534 64.330,124.502 64.564,124.622 65.165 C 124.719 65.655,124.914 66.095,125.055 66.143 C 125.198 66.192,125.311 67.369,125.311 68.825 C 125.311 70.380,125.415 71.419,125.572 71.419 C 125.717 71.419,125.834 72.112,125.834 72.973 C 125.834 73.828,125.952 74.600,126.095 74.689 C 126.239 74.778,126.357 75.315,126.357 75.882 C 126.357 76.624,126.467 76.913,126.750 76.913 C 127.032 76.913,127.142 77.202,127.142 77.944 C 127.142 78.511,127.260 79.048,127.404 79.137 C 127.547 79.226,127.665 79.646,127.665 80.071 C 127.665 80.496,127.774 81.049,127.908 81.299 C 128.041 81.548,128.217 81.966,128.298 82.227 C 128.380 82.488,128.565 82.628,128.710 82.539 C 128.855 82.449,128.973 82.559,128.973 82.784 C 128.973 83.008,128.847 83.192,128.693 83.192 C 128.231 83.192,127.665 82.481,127.665 81.902 C 127.665 81.604,127.547 81.360,127.404 81.360 C 127.260 81.360,127.142 81.138,127.142 80.865 C 127.142 80.593,126.965 80.302,126.750 80.219 C 126.534 80.137,126.357 79.837,126.357 79.553 C 126.357 79.269,126.239 78.964,126.095 78.875 C 125.952 78.786,125.834 78.452,125.834 78.133 C 125.834 77.814,125.675 77.320,125.481 77.037 C 125.287 76.753,125.159 76.120,125.196 75.631 C 125.276 74.577,125.106 74.035,124.694 74.036 C 124.191 74.037,122.695 75.462,122.695 75.940 C 122.695 76.187,122.577 76.390,122.433 76.390 C 122.289 76.390,122.171 76.729,122.171 77.143 C 122.171 77.557,122.003 78.035,121.797 78.206 C 121.286 78.630,121.332 86.237,121.844 86.135 C 122.071 86.089,122.171 86.470,122.171 87.377 C 122.171 88.097,122.289 88.685,122.433 88.685 C 122.577 88.685,122.695 88.854,122.695 89.061 C 122.695 89.267,122.830 89.768,122.996 90.173 C 123.162 90.578,123.331 91.074,123.371 91.275 C 123.412 91.477,123.585 91.728,123.757 91.835 C 123.929 91.941,123.983 92.168,123.878 92.338 C 123.637 92.727,122.695 91.790,122.695 91.163 C 122.695 90.684,122.088 89.993,121.667 89.993 C 121.513 89.993,121.387 89.776,121.387 89.511 C 121.387 89.245,121.171 88.833,120.908 88.595 C 120.389 88.125,119.685 87.999,119.948 88.424 C 120.037 88.568,119.986 88.685,119.835 88.685 C 119.399 88.685,119.533 92.094,119.977 92.264 C 120.234 92.363,120.340 92.888,120.340 94.061 C 120.340 94.972,120.458 95.791,120.602 95.880 C 120.746 95.969,120.863 96.437,120.863 96.920 C 120.863 97.403,120.988 97.840,121.141 97.891 C 121.293 97.941,121.429 98.358,121.442 98.815 C 121.455 99.273,121.624 99.708,121.818 99.783 C 122.013 99.857,122.171 100.157,122.171 100.450 C 122.171 100.742,122.289 100.981,122.433 100.981 C 122.577 100.981,122.695 101.118,122.695 101.286 C 122.695 101.774,123.560 103.597,123.791 103.597 C 123.908 103.597,124.006 103.803,124.011 104.055 C 124.021 104.620,124.610 105.428,125.012 105.428 C 125.176 105.428,125.311 105.674,125.311 105.974 C 125.311 106.291,125.914 107.109,126.750 107.925 C 127.541 108.698,128.188 109.453,128.188 109.603 C 128.188 109.753,128.311 109.876,128.461 109.876 C 128.612 109.876,129.367 110.523,130.139 111.315 C 130.912 112.106,131.672 112.753,131.828 112.753 C 131.985 112.753,132.112 112.930,132.112 113.146 C 132.112 113.364,132.345 113.538,132.636 113.538 C 132.932 113.538,133.159 113.713,133.159 113.940 C 133.159 114.258,133.266 114.284,133.673 114.066 C 134.248 113.759,134.556 112.765,134.973 109.876 C 135.430 106.716,136.760 99.700,137.503 96.534 C 141.371 80.057,145.068 69.461,151.104 57.554 C 154.516 50.823,159.687 42.741,162.989 38.980 C 163.431 38.476,163.977 37.760,164.203 37.389 C 164.622 36.698,165.598 35.936,165.598 36.299 C 165.598 36.409,165.332 36.793,165.006 37.151 C 164.679 37.509,163.946 38.450,163.376 39.241 C 162.806 40.033,162.188 40.838,162.003 41.030 C 161.516 41.535,158.096 46.782,156.262 49.836 C 147.925 63.717,141.553 81.678,137.884 101.635 C 136.893 107.026,135.799 115.033,135.981 115.566 C 136.113 115.952,137.606 116.012,137.606 115.631 C 137.606 115.487,137.777 115.370,137.986 115.370 C 138.194 115.370,138.459 115.201,138.574 114.996 C 138.789 114.612,138.851 114.588,139.634 114.581 C 140.025 114.577,140.035 114.540,139.699 114.323 C 139.393 114.125,139.466 114.069,140.026 114.065 C 140.422 114.063,140.746 113.944,140.746 113.800 C 140.746 113.656,140.981 113.538,141.269 113.538 C 141.559 113.538,141.792 113.364,141.792 113.146 C 141.792 112.930,141.969 112.753,142.184 112.753 C 142.400 112.753,142.577 112.636,142.577 112.492 C 142.577 112.348,142.812 112.230,143.100 112.230 C 143.388 112.230,143.623 112.112,143.623 111.969 C 143.623 111.825,143.800 111.707,144.016 111.707 C 144.232 111.707,144.408 111.530,144.408 111.315 C 144.408 111.097,144.641 110.922,144.931 110.922 C 145.219 110.922,145.455 110.804,145.455 110.661 C 145.455 110.517,145.611 110.399,145.803 110.399 C 145.994 110.399,146.300 110.120,146.483 109.778 C 146.666 109.437,147.263 108.906,147.811 108.598 C 148.996 107.932,150.425 106.642,150.425 106.239 C 150.425 106.081,150.548 105.952,150.699 105.952 C 151.053 105.952,152.407 104.596,152.322 104.326 C 152.286 104.213,152.405 104.120,152.587 104.120 C 152.768 104.120,153.136 103.828,153.404 103.471 C 153.673 103.114,153.998 102.888,154.127 102.967 C 154.256 103.047,154.331 103.016,154.293 102.897 C 154.255 102.779,154.899 101.997,155.725 101.160 C 156.551 100.323,157.227 99.431,157.227 99.177 C 157.227 98.923,157.521 98.557,157.881 98.365 C 158.241 98.172,158.535 97.787,158.535 97.508 C 158.535 97.229,158.829 96.770,159.189 96.487 C 159.549 96.204,159.843 95.746,159.843 95.468 C 159.843 95.191,159.961 94.964,160.105 94.964 C 160.249 94.964,160.366 94.800,160.366 94.600 C 160.366 94.399,160.550 94.165,160.775 94.078 C 161.000 93.992,161.110 93.802,161.020 93.656 C 160.930 93.510,161.040 93.320,161.265 93.234 C 161.490 93.147,161.674 92.795,161.674 92.451 C 161.674 92.106,161.792 91.825,161.936 91.825 C 162.080 91.825,162.198 91.530,162.198 91.171 C 162.198 90.811,162.349 90.517,162.534 90.517 C 162.719 90.517,162.891 90.254,162.915 89.932 C 162.939 89.610,163.082 89.306,163.232 89.256 C 163.383 89.206,163.506 88.763,163.506 88.271 C 163.506 87.780,163.623 87.377,163.767 87.377 C 163.911 87.377,164.029 86.965,164.029 86.462 C 164.029 85.822,164.147 85.546,164.421 85.546 C 164.722 85.546,164.814 85.214,164.814 84.123 C 164.814 83.340,164.931 82.627,165.075 82.538 C 165.707 82.147,165.376 80.052,164.683 80.052 C 163.736 80.052,163.803 79.708,165.010 78.361 C 165.190 78.161,165.337 77.766,165.337 77.483 C 165.337 77.200,165.521 76.898,165.746 76.812 C 165.975 76.724,166.072 76.521,165.967 76.351 C 165.850 76.162,165.893 76.118,166.083 76.235 C 166.261 76.345,166.448 76.226,166.535 75.949 C 166.616 75.688,166.792 75.270,166.926 75.020 C 167.397 74.137,167.225 72.727,166.645 72.727 C 166.357 72.727,166.122 72.845,166.122 72.989 C 166.122 73.133,165.827 73.250,165.468 73.250 C 165.061 73.250,164.814 73.399,164.814 73.643 C 164.814 73.887,164.567 74.035,164.160 74.035 C 163.800 74.035,163.506 74.153,163.506 74.297 C 163.506 74.441,163.235 74.559,162.904 74.559 C 162.573 74.559,162.190 74.666,162.054 74.798 C 161.917 74.930,161.511 75.080,161.151 75.131 C 160.791 75.183,160.526 75.369,160.562 75.546 C 160.605 75.757,160.269 75.867,159.581 75.867 C 159.006 75.867,158.535 75.984,158.535 76.128 C 158.535 76.272,158.241 76.390,157.881 76.390 C 157.521 76.390,157.227 76.272,157.227 76.128 C 157.227 75.984,157.521 75.867,157.881 75.867 C 158.288 75.867,158.535 75.718,158.535 75.474 C 158.535 75.139,159.081 74.939,159.429 75.147 C 159.490 75.183,159.817 74.889,160.157 74.493 C 160.497 74.097,160.952 73.774,161.167 73.774 C 161.383 73.774,161.728 73.538,161.936 73.250 C 162.143 72.963,162.464 72.727,162.648 72.727 C 162.832 72.727,162.982 72.551,162.982 72.335 C 162.982 71.986,163.136 71.901,163.660 71.960 C 163.745 71.969,163.977 71.763,164.175 71.502 C 164.373 71.241,164.539 71.124,164.544 71.242 C 164.553 71.488,165.337 70.759,165.337 70.504 C 165.337 70.285,166.034 69.588,166.252 69.588 C 166.524 69.588,167.168 68.865,167.168 68.560 C 167.168 68.406,167.294 68.280,167.448 68.280 C 167.778 68.280,168.615 67.499,168.299 67.487 C 168.180 67.482,168.312 67.306,168.592 67.094 C 168.871 66.883,168.964 66.710,168.797 66.710 C 168.631 66.710,169.021 66.170,169.663 65.509 C 170.305 64.848,170.831 64.083,170.831 63.809 C 170.831 63.534,171.007 63.309,171.223 63.309 C 171.441 63.309,171.615 63.077,171.615 62.786 C 171.615 62.498,171.733 62.263,171.877 62.263 C 172.021 62.263,172.139 62.012,172.139 61.704 C 172.139 61.397,172.405 60.897,172.730 60.592 C 173.120 60.227,173.320 59.738,173.319 59.154 C 173.316 58.250,173.846 57.390,174.496 57.243 C 174.695 57.198,175.113 56.897,175.425 56.573 C 175.737 56.249,176.075 55.984,176.177 55.984 C 176.408 55.984,177.109 55.296,177.109 55.069 C 177.109 54.797,177.832 54.153,178.137 54.153 C 178.291 54.153,178.417 54.036,178.417 53.892 C 178.417 53.748,178.829 53.194,179.333 52.660 C 179.836 52.126,180.249 51.565,180.249 51.414 C 180.249 51.262,180.518 50.936,180.846 50.689 C 181.741 50.017,181.782 48.659,180.907 48.659 C 180.545 48.659,180.249 48.777,180.249 48.921 C 180.249 49.065,180.005 49.182,179.707 49.182 C 179.127 49.182,178.417 49.749,178.417 50.210 C 178.417 50.364,178.149 50.491,177.821 50.491 C 177.493 50.491,177.055 50.726,176.848 51.014 C 176.640 51.302,176.202 51.537,175.874 51.537 C 175.519 51.537,175.278 51.695,175.278 51.929 C 175.278 52.145,175.049 52.322,174.770 52.322 C 174.491 52.322,174.190 52.440,174.101 52.583 C 174.012 52.727,173.761 52.845,173.543 52.845 C 173.326 52.845,172.971 53.022,172.755 53.237 C 172.539 53.453,172.143 53.630,171.874 53.630 C 171.605 53.630,171.312 53.748,171.223 53.891 C 171.134 54.035,170.774 54.153,170.423 54.153 C 170.072 54.153,169.784 54.271,169.784 54.415 C 169.784 54.559,169.490 54.676,169.130 54.676 C 168.770 54.676,168.476 54.559,168.476 54.415 C 168.476 54.271,168.770 54.153,169.130 54.153 C 169.537 54.153,169.784 54.005,169.784 53.761 C 169.784 53.543,170.017 53.368,170.307 53.368 C 170.595 53.368,170.831 53.250,170.831 53.107 C 170.831 52.963,171.115 52.845,171.463 52.845 C 171.811 52.845,172.136 52.722,172.186 52.572 C 172.236 52.421,172.540 52.279,172.862 52.254 C 173.184 52.230,173.447 52.059,173.447 51.874 C 173.447 51.688,173.682 51.537,173.970 51.537 C 174.258 51.537,174.493 51.419,174.493 51.275 C 174.493 51.131,174.660 51.014,174.864 51.014 C 175.068 51.014,175.276 50.890,175.326 50.738 C 175.377 50.586,175.618 50.433,175.861 50.397 C 176.105 50.361,176.517 50.087,176.776 49.788 C 177.035 49.489,177.481 49.194,177.767 49.133 C 178.053 49.071,178.257 48.880,178.221 48.709 C 178.185 48.538,178.253 48.427,178.372 48.463 C 178.491 48.499,178.994 48.116,179.489 47.613 C 179.985 47.109,180.742 46.521,181.170 46.305 C 182.116 45.828,182.603 45.390,182.603 45.015 C 182.603 44.861,182.726 44.735,182.877 44.735 C 183.232 44.735,184.434 43.532,184.434 43.177 C 184.434 43.027,184.611 42.904,184.827 42.904 C 185.045 42.904,185.219 42.671,185.219 42.381 C 185.219 42.093,185.337 41.857,185.481 41.857 C 185.625 41.857,185.742 41.731,185.742 41.577 C 185.742 41.239,186.399 40.549,186.721 40.549 C 186.849 40.549,187.112 40.142,187.308 39.645 C 187.503 39.147,187.827 38.677,188.027 38.600 C 188.228 38.523,188.326 38.354,188.246 38.224 C 188.165 38.094,188.276 37.921,188.491 37.838 C 188.706 37.756,188.882 37.508,188.882 37.287 C 188.882 37.067,188.999 36.887,189.143 36.887 C 189.287 36.887,189.405 36.593,189.405 36.233 C 189.405 35.826,189.553 35.579,189.797 35.579 C 190.013 35.579,190.190 35.402,190.190 35.186 C 190.190 34.971,190.289 34.794,190.411 34.794 C 190.533 34.794,190.615 34.470,190.595 34.075 C 190.546 33.123,189.345 32.911,188.637 33.728 C 188.378 34.027,188.033 34.271,187.870 34.271 C 187.707 34.271,187.574 34.394,187.574 34.544 C 187.574 35.021,186.311 36.102,185.754 36.102 C 185.453 36.102,185.219 36.274,185.219 36.494 C 185.219 36.710,185.043 36.887,184.827 36.887 C 184.611 36.887,184.434 36.977,184.434 37.087 C 184.434 37.197,183.993 37.480,183.453 37.717 C 182.914 37.954,182.212 38.394,181.895 38.694 C 181.577 38.995,181.076 39.241,180.783 39.241 C 180.473 39.241,180.249 39.413,180.249 39.649 C 180.249 39.874,180.141 39.990,180.009 39.909 C 179.877 39.827,179.465 39.876,179.093 40.018 C 177.975 40.443,178.332 39.891,179.595 39.241 C 180.242 38.908,180.772 38.478,180.772 38.285 C 180.772 38.091,180.987 37.933,181.251 37.933 C 181.514 37.933,182.367 37.345,183.147 36.627 C 183.927 35.908,184.699 35.320,184.863 35.319 C 185.026 35.318,185.438 34.965,185.778 34.535 C 186.118 34.104,186.543 33.751,186.723 33.750 C 186.903 33.749,187.050 33.614,187.050 33.451 C 187.050 33.138,188.351 31.917,188.685 31.917 C 188.793 31.916,188.882 31.740,188.882 31.524 C 188.882 31.308,188.999 31.131,189.143 31.131 C 189.287 31.131,189.405 30.896,189.405 30.608 C 189.405 30.318,189.579 30.085,189.797 30.085 C 190.013 30.085,190.190 29.934,190.190 29.750 C 190.190 29.566,190.425 29.246,190.713 29.039 C 191.001 28.831,191.236 28.511,191.236 28.327 C 191.236 28.143,191.413 27.992,191.629 27.992 C 191.847 27.992,192.021 27.760,192.021 27.469 C 192.021 27.181,192.139 26.946,192.283 26.946 C 192.426 26.946,192.544 26.769,192.544 26.553 C 192.544 26.337,192.662 26.161,192.806 26.161 C 192.950 26.161,193.067 25.990,193.067 25.781 C 193.067 25.573,193.215 25.308,193.395 25.193 C 193.575 25.078,193.898 24.630,194.114 24.199 C 194.329 23.767,194.653 23.320,194.833 23.205 C 195.013 23.090,195.160 22.766,195.160 22.485 C 195.160 22.205,195.278 21.975,195.422 21.975 C 195.566 21.975,195.683 21.681,195.683 21.321 C 195.683 20.961,195.801 20.667,195.945 20.667 C 196.089 20.667,196.207 20.373,196.207 20.013 C 196.207 19.606,196.355 19.359,196.599 19.359 C 196.817 19.359,196.991 19.127,196.991 18.836 C 196.991 18.548,197.109 18.313,197.253 18.313 C 197.397 18.313,197.515 18.025,197.515 17.674 C 197.515 17.323,197.632 16.963,197.776 16.874 C 197.920 16.785,198.040 16.336,198.042 15.877 C 198.045 15.321,198.120 15.159,198.267 15.391 C 198.523 15.795,198.823 15.242,198.823 14.367 C 198.823 14.091,198.940 13.865,199.084 13.865 C 199.228 13.865,199.346 13.453,199.346 12.950 C 199.346 12.446,199.464 12.034,199.608 12.034 C 199.751 12.034,199.869 11.517,199.869 10.885 C 199.869 10.105,199.995 9.687,200.262 9.585 C 200.531 9.481,200.654 9.060,200.654 8.237 L 200.654 7.040 197.532 7.080 C 195.134 7.111,194.377 7.205,194.270 7.484 M167.953 55.069 C 167.953 55.314,167.705 55.461,167.289 55.461 C 166.726 55.461,166.676 55.402,166.962 55.079 C 167.403 54.578,167.953 54.572,167.953 55.069 M163.577 80.772 C 163.355 81.359,162.836 81.884,162.478 81.884 C 162.038 81.884,162.143 81.648,162.890 80.955 C 163.713 80.192,163.806 80.168,163.577 80.772 " stroke="none" fill="#f3e3d3" fill-rule="evenodd"></path><path id="path4" d="M76.425 141.107 C 75.263 141.752,76.522 141.792,97.717 141.792 C 118.465 141.792,119.928 141.736,118.739 140.982 C 118.108 140.582,77.153 140.704,76.425 141.107 " stroke="none" fill="#723424" fill-rule="evenodd"></path></g></svg>